# xmcd
#
# Track frame offsets: 
#        150
#        18492
#        34770
#        49130
#        66921
#        75782
#        89257
#        103485
#        119166
#        140115
#        151699
#        173422
#
# Disc length: 2514 seconds
#
# Revision: 0
# Processed by: cddbd v1.5.2PL0 Copyright (c) Steve Scherf et al.
# Submitted via: ExactAudioCopy v0.95b4
#
DISCID=9a09d00c
DTITLE=Jay Ottaway - Modern Times
DYEAR=2009
DGENRE=Country
TTITLE0=Yes We Can
TTITLE1=See No Evil
TTITLE2=Heal My Heart
TTITLE3=Modern Times
TTITLE4=Memory Tree
TTITLE5=Heal All Wounds
TTITLE6=Will She Love A Soldier
TTITLE7=Moments That Won't Come Again
TTITLE8=Creativity
TTITLE9=Lucky Days
TTITLE10=Great And Small
TTITLE11=She Wants To Dance
EXTD=
EXTT0=
EXTT1=
EXTT2=
EXTT3=
EXTT4=
EXTT5=
EXTT6=
EXTT7=
EXTT8=
EXTT9=
EXTT10=
EXTT11=
PLAYORDER=
